<?xml version="1.0" encoding="UTF-8" standalone="no"?>
<svg
   xmlns:dc="http://purl.org/dc/elements/1.1/"
   xmlns:cc="http://creativecommons.org/ns#"
   xmlns:rdf="http://www.w3.org/1999/02/22-rdf-syntax-ns#"
   xmlns:svg="http://www.w3.org/2000/svg"
   xmlns="http://www.w3.org/2000/svg"
   xmlns:sodipodi="http://sodipodi.sourceforge.net/DTD/sodipodi-0.dtd"
   xmlns:inkscape="http://www.inkscape.org/namespaces/inkscape"
   width="200"
   height="200"
   id="svg4332"
   version="1.1"
   inkscape:version="0.91 r13725"
   sodipodi:docname="ux.svg">
  <defs
     id="defs4342" />
  <sodipodi:namedview
     pagecolor="#ffffff"
     bordercolor="#666666"
     borderopacity="1"
     objecttolerance="10"
     gridtolerance="10"
     guidetolerance="10"
     inkscape:pageopacity="0"
     inkscape:pageshadow="2"
     inkscape:window-width="2504"
     inkscape:window-height="1604"
     id="namedview4340"
     showgrid="false"
     inkscape:zoom="8.6186905"
     inkscape:cx="51.035894"
     inkscape:cy="180.10685"
     inkscape:window-x="28"
     inkscape:window-y="48"
     inkscape:window-maximized="0"
     inkscape:current-layer="layer5"
     showguides="true"
     inkscape:guide-bbox="true">
    <sodipodi:guide
       position="144.58157,87.695975"
       orientation="1,0"
       id="guide5456" />
  </sodipodi:namedview>
  <metadata
     id="metadata7">image/svg+xml<rdf:RDF>
  <cc:Work
     rdf:about="">
    <dc:format>image/svg+xml</dc:format>
    <dc:type
       rdf:resource="http://purl.org/dc/dcmitype/StillImage" />
    <dc:title></dc:title>
  </cc:Work>
</rdf:RDF>
</metadata>
  <g
     id="g5055"
     transform="translate(853.75559,-372.00661)">
    <g
       id="g5015">
      <path
         id="path5017"
         d="m 234.374,0 c -72.256,0 -131.033,59.728 -131.033,133.146 0,29.205 16.976,55.49 31.951,78.672 8.825,13.66 17.153,26.563 19.024,36.209 5.267,27.225 8.281,91.806 8.311,92.456 0.207,4.516 3.922,8.068 8.449,8.068 l 126.611,0 c 2.323,0 4.54,-0.952 6.142,-2.642 1.596,-1.697 2.43,-3.967 2.299,-6.283 -1.572,-28.307 -0.49,-78.489 9.127,-92.699 1.666,-2.459 3.582,-5.178 5.65,-8.156 C 337.55,215.012 365.419,175.23 365.419,133.139 365.406,59.734 306.63,0 234.374,0 Z m 72.676,229.092 c -2.134,3.047 -4.091,5.85 -5.805,8.367 -13.246,19.588 -13.068,72.359 -12.377,94.193 l -109.76,0 c -0.993,-18.535 -3.783,-64.025 -8.189,-86.822 -2.489,-12.874 -11.26,-26.451 -21.427,-42.183 -13.71,-21.226 -29.247,-45.273 -29.247,-69.496 0,-64.096 51.199,-116.235 114.128,-116.235 62.929,0 114.128,52.139 114.128,116.235 0.001,36.76 -25.947,73.805 -41.451,95.941 z m -138.197,132.026 131.033,0 0,65.521 c 0,12.318 -7.979,22.662 -19.021,26.445 -2.046,8.973 -10.031,15.675 -19.618,15.675 l -53.759,0 c -9.587,0 -17.572,-6.702 -19.618,-15.675 -11.038,-3.783 -19.024,-14.127 -19.024,-26.445 l 0,-65.521 0.007,0 z"
         inkscape:connector-curvature="0" />
    </g>
    <g
       id="g5019" />
    <g
       id="g5021" />
    <g
       id="g5023" />
    <g
       id="g5025" />
    <g
       id="g5027" />
    <g
       id="g5029" />
    <g
       id="g5031" />
    <g
       id="g5033" />
    <g
       id="g5035" />
    <g
       id="g5037" />
    <g
       id="g5039" />
    <g
       id="g5041" />
    <g
       id="g5043" />
    <g
       id="g5045" />
    <g
       id="g5047" />
  </g>
  <g
     inkscape:groupmode="layer"
     id="layer6"
     inkscape:label="Layer 2"
     style="display:inline"
     transform="translate(0,-280)">
    <g
       id="g5284"
       transform="translate(-203.38983,52.11865)" />
  </g>
  <g
     inkscape:groupmode="layer"
     id="layer5"
     inkscape:label="Layer 1"
     style="display:inline"
     transform="translate(0,-280)">
    <g
       id="g5278"
       transform="translate(-203.38983,49.118376)"
       style="fill:#ff7f2a">
      <g
         style="display:inline;fill:#ff7f2a"
         transform="matrix(0.63291028,0,0,0.62842347,108.07961,184.59756)"
         id="g4335">
        <title
           id="title4337">Layer 1</title>
        <path
           id="path2396"
           style="fill:#ff7f2a"
           d="m 306.35835,129.9226 c -24.32372,0.88816 -50.38691,12.73584 -60.63628,36.0234 -11.0092,22.50802 -10.05449,51.1762 4.51528,71.9164 11.665,12.64007 15.99755,13.4111 16.65138,22.95973 -0.18454,20.61786 -12.36439,41.84549 -16.28324,60.0985 -2.65323,8.13672 -0.16011,7.21852 1.66322,7.35158 l 89.64311,0 c 0,0 3.51693,0.125 3.50417,-2.18636 -0.0232,-4.19767 0.12994,-15.82313 7.20994,-20.23942 7.97276,-4.51937 17.07203,-5.00572 25.91273,-5.67522 0,0 9.28881,0.003 12.92392,-3.45042 3.02286,-2.87156 1.45289,-11.04954 1.111,-14.62129 -0.35156,-3.67276 0.94944,-10.09954 1.66867,-11.06112 0.68484,-0.9156 1.03471,-1.43929 1.94959,-2.10164 0.3717,-0.2691 0.92985,-0.95665 1.08822,-1.68989 0.29953,-1.38679 -0.73045,-1.887 -1.74762,-1.91628 -1.01722,-0.0293 -2.7434,0.63752 -2.7434,0.63752 0.10058,-0.58547 4.0093,-0.77747 4.51977,-1.92934 0.15627,-0.20772 0.45739,-0.9967 0.007,-1.84079 -2.82091,-4.60125 -1.80116,-11.0973 -1.35849,-12.59027 0.88534,-2.98593 4.2428,-2.89991 5.92352,-4.40619 3.39657,-3.04404 1.57141,-5.96614 -7.10139,-17.84826 -4.93966,-6.62556 -6.47185,-10.74249 -5.67179,-19.3974 -0.7936,-19.5764 -3.03372,-41.23421 -17.72944,-55.77229 -11.5984,-11.48191 -27.93736,-16.532 -43.48775,-20.0474 -7.0906,-1.36445 -14.30189,-2.2614 -21.53212,-2.21359 z m 160.23262,102.85684 c 0,87.88417 -70.73913,159.12837 -158.00028,159.12837 -87.26115,0 -158.00028,-71.2442 -158.00028,-159.12837 0,-87.88417 70.73914,-159.128365 158.00028,-159.128365 87.26114,0 158.00028,71.244195 158.00028,159.128365 z"
           inkscape:connector-curvature="0"
           sodipodi:nodetypes="sccccccsccsssssscccsscccccssssss" />
      </g>
    </g>
  </g>
  <g
     inkscape:groupmode="layer"
     id="layer7"
     inkscape:label="Layer 3">
    <g
       id="g5412"
       transform="translate(2,4)"
       style="fill:#ff7f2a;fill-opacity:1">
      <rect
         inkscape:transform-center-y="-0.74293278"
         inkscape:transform-center-x="3.6264291"
         transform="matrix(-0.79060889,-0.61232148,-0.61232148,0.79060889,0,-280)"
         y="193.21318"
         x="-299.46323"
         height="10"
         width="1.75"
         id="rect5309-1"
         style="display:inline;opacity:1;fill:#ff7f2a;fill-opacity:1;fill-rule:nonzero;stroke:none;stroke-width:6.30000019;stroke-linecap:butt;stroke-linejoin:miter;stroke-miterlimit:4;stroke-dasharray:none;stroke-opacity:1" />
      <rect
         inkscape:transform-center-y="1.6169517"
         inkscape:transform-center-x="-3.3299091"
         transform="matrix(0.99998813,-0.00487158,0.00487158,0.99998813,0,-280)"
         y="331.48889"
         x="99.52227"
         height="10"
         width="1.75"
         id="rect5309-7"
         style="display:inline;opacity:1;fill:#ff7f2a;fill-opacity:1;fill-rule:nonzero;stroke:none;stroke-width:6.30000019;stroke-linecap:butt;stroke-linejoin:miter;stroke-miterlimit:4;stroke-dasharray:none;stroke-opacity:1" />
      <rect
         inkscape:transform-center-y="3.6951419"
         inkscape:transform-center-x="0.22077338"
         transform="matrix(0.38687798,0.92213092,-0.92213092,0.38687798,0,-280)"
         y="16.93108"
         x="369.48163"
         height="10"
         width="1.75"
         id="rect5309-7-3"
         style="display:inline;opacity:1;fill:#ff7f2a;fill-opacity:1;fill-rule:nonzero;stroke:none;stroke-width:6.30000019;stroke-linecap:butt;stroke-linejoin:miter;stroke-miterlimit:4;stroke-dasharray:none;stroke-opacity:1" />
      <rect
         inkscape:transform-center-y="3.695135"
         inkscape:transform-center-x="-0.22077854"
         transform="matrix(-0.38687798,0.92213092,0.92213092,0.38687798,0,-280)"
         y="204.96149"
         x="290.59366"
         height="10"
         width="1.75"
         id="rect5309-7-3-2"
         style="display:inline;opacity:1;fill:#ff7f2a;fill-opacity:1;fill-rule:nonzero;stroke:none;stroke-width:6.30000019;stroke-linecap:butt;stroke-linejoin:miter;stroke-miterlimit:4;stroke-dasharray:none;stroke-opacity:1" />
      <rect
         inkscape:transform-center-y="-0.74291964"
         inkscape:transform-center-x="-3.6264292"
         transform="matrix(0.79060889,-0.61232148,0.61232148,0.79060889,0,-280)"
         y="317.88541"
         x="-138.4908"
         height="10"
         width="1.75"
         id="rect5309-1-6"
         style="display:inline;opacity:1;fill:#ff7f2a;fill-opacity:1;fill-rule:nonzero;stroke:none;stroke-width:6.30000019;stroke-linecap:butt;stroke-linejoin:miter;stroke-miterlimit:4;stroke-dasharray:none;stroke-opacity:1" />
      <g
         transform="matrix(0.11446974,0,0,0.11447034,75.170583,63.169998)"
         id="g5201"
         style="fill:#ff7f2a;fill-opacity:1">
        <g
           id="g5161"
           style="fill:#ff7f2a;fill-opacity:1">
          <path
             inkscape:connector-curvature="0"
             d="m 234.374,0 c -72.256,0 -131.033,59.728 -131.033,133.146 0,29.205 16.976,55.49 31.951,78.672 8.825,13.66 17.153,26.563 19.024,36.209 5.267,27.225 8.281,91.806 8.311,92.456 0.207,4.516 3.922,8.068 8.449,8.068 l 126.611,0 c 2.323,0 4.54,-0.952 6.142,-2.642 1.596,-1.697 2.43,-3.967 2.299,-6.283 -1.572,-28.307 -0.49,-78.489 9.127,-92.699 1.666,-2.459 3.582,-5.178 5.65,-8.156 C 337.55,215.012 365.419,175.23 365.419,133.139 365.406,59.734 306.63,0 234.374,0 Z m 72.676,229.092 c -2.134,3.047 -4.091,5.85 -5.805,8.367 -13.246,19.588 -13.068,72.359 -12.377,94.193 l -109.76,0 c -0.993,-18.535 -3.783,-64.025 -8.189,-86.822 -2.489,-12.874 -11.26,-26.451 -21.427,-42.183 -13.71,-21.226 -29.247,-45.273 -29.247,-69.496 0,-64.096 51.199,-116.235 114.128,-116.235 62.929,0 114.128,52.139 114.128,116.235 0.001,36.76 -25.947,73.805 -41.451,95.941 z m -138.197,132.026 131.033,0 0,65.521 c 0,12.318 -7.979,22.662 -19.021,26.445 -2.046,8.973 -10.031,15.675 -19.618,15.675 l -53.759,0 c -9.587,0 -17.572,-6.702 -19.618,-15.675 -11.038,-3.783 -19.024,-14.127 -19.024,-26.445 l 0,-65.521 0.007,0 z"
             id="path5163"
             style="fill:#ff7f2a;fill-opacity:1" />
        </g>
        <g
           id="g5165"
           style="fill:#ff7f2a;fill-opacity:1" />
        <g
           id="g5167"
           style="fill:#ff7f2a;fill-opacity:1" />
        <g
           id="g5169"
           style="fill:#ff7f2a;fill-opacity:1" />
        <g
           id="g5171"
           style="fill:#ff7f2a;fill-opacity:1" />
        <g
           id="g5173"
           style="fill:#ff7f2a;fill-opacity:1" />
        <g
           id="g5175"
           style="fill:#ff7f2a;fill-opacity:1" />
        <g
           id="g5177"
           style="fill:#ff7f2a;fill-opacity:1" />
        <g
           id="g5179"
           style="fill:#ff7f2a;fill-opacity:1" />
        <g
           id="g5181"
           style="fill:#ff7f2a;fill-opacity:1" />
        <g
           id="g5183"
           style="fill:#ff7f2a;fill-opacity:1" />
        <g
           id="g5185"
           style="fill:#ff7f2a;fill-opacity:1" />
        <g
           id="g5187"
           style="fill:#ff7f2a;fill-opacity:1" />
        <g
           id="g5189"
           style="fill:#ff7f2a;fill-opacity:1" />
        <g
           id="g5191"
           style="fill:#ff7f2a;fill-opacity:1" />
        <g
           id="g5193"
           style="fill:#ff7f2a;fill-opacity:1" />
      </g>
    </g>
  </g>
</svg>
